<?xml version="1.0" encoding="UTF-8"?>
<svg id="Layer_1" xmlns="http://www.w3.org/2000/svg" version="1.1" viewBox="0 0 754.5 170.3">
  <!-- Generator: Adobe Illustrator 29.6.1, SVG Export Plug-In . SVG Version: 2.1.1 Build 9)  -->
  <defs>
    <style>
      .st0 {
        fill: #fff;
      }
    </style>
  </defs>
  <g>
    <path class="st0" d="M89.3,170.3C32.8,170.3,0,150.3,0,97.7S25.1,0,89.8,0s88.9,53.2,88.9,97.7-32.6,72.6-89.3,72.6h-.1ZM112,84.9c0-60.7-.9-79.6-22.7-79.6s-22.4,18.9-22.4,79.6.7,79.9,22.4,79.9,22.7-18.9,22.7-79.9Z"/>
    <path class="st0" d="M291.5,167.6L210.8,15.4h-.9l.9,135.3c0,10.8.2,12.8,9.7,12.8v4.2h-27.7v-4.2c7.9,0,9-1.1,9.2-11.9l2.4-138.4c0-5.1-4.2-7.5-10.6-7.5V1.8h69.1v.7c0,3.7,2.4,8.1,5.1,12.1l62.7,92h.4l1.1-87.6c.2-11-4-13-14.3-13V1.8h32.8v4.2c-7.9,0-13.9,1.1-13.6,11.9l2.4,149.8h-48Z"/>
  </g>
  <g>
    <path class="st0" d="M457.7,170.3c-56.5,0-89.3-20-89.3-72.6S393.5,0,458.1,0s88.9,53.2,88.9,97.7-32.6,72.6-89.3,72.6h0ZM480.4,84.9c0-60.7-.9-79.6-22.7-79.6s-22.4,18.9-22.4,79.6.7,79.9,22.4,79.9,22.7-18.9,22.7-79.9Z"/>
    <path class="st0" d="M668.5,167.6v-4.2c7.9,0,9.7-2.2,10.3-11.9l4.2-68.6h-50.8l4,68.6c.7,9.7,2.4,11.9,10.6,11.9v4.2h-86.2v-4.2c7.5,0,10.1-1.8,10.8-11.9l7.9-131.8c.7-11.2-3.3-14.1-13.4-14.1V1.8h75.9v4c-13,0-14.1,3.1-13.4,14.1l3.3,57.6h51.7l3.5-57.6c.7-11-.4-14.1-13.2-14.1V1.8h75.7v4c-9.5,0-13.9,2.2-13.2,14.1l7.7,131.8c.7,9.7,2.9,11.9,10.8,11.9v4.2h-86l-.2-.2Z"/>
  </g>
</svg>